# xmcd CD database file
#
# Track frame offsets:
#	150
#	11559
#	27770
#	37627
#	62073
#	80052
#	97853
#	111393
#	134112
#	152798
#	175985
#	187776
#
# Disc length: 2638 seconds
#
# Revision: 0
# Processed by: cddbd v1.4PL0 Copyright (c) Steve Scherf et al.
# Submitted via: CDex 1.40Release
#
DISCID=920a4c0c
DTITLE=New City Cowfreaks - Cow Siesta
DYEAR=1998
DGENRE=Country
TTITLE0=Drunk Driver
TTITLE1=Seven Four Eleven
TTITLE2=Golden Gig
TTITLE3=Hard Woman
TTITLE4=Cowfreaks on the road
TTITLE5=Call me a cowfreak
TTITLE6=Dream on
TTITLE7=You're the girl
TTITLE8=Dark side of lime rock
TTITLE9=Interrail
TTITLE10=Wego home
TTITLE11=Counting the cattle
EXTD=YEAR: 1998 ID3G: 2
EXTT0=
EXTT1=
EXTT2=
EXTT3=
EXTT4=
EXTT5=
EXTT6=
EXTT7=
EXTT8=
EXTT9=
EXTT10=
EXTT11=
PLAYORDER=
